<svg width="480" height="361" viewBox="0 0 480 361" fill="none" xmlns="http://www.w3.org/2000/svg">
<path d="M447.023 147.914H0V359.999H447.023V147.914Z" fill="url(#paint0_linear_1171:1711)"/>
<path d="M373.119 233.832H73.9024V360.001H373.119V233.832Z" fill="#F6F9FF"/>
<path d="M373.119 241.529H73.9024V242.73H373.119V241.529Z" fill="#4F4F4F"/>
<path d="M79.2962 240.174C80.4846 240.174 81.4481 239.21 81.4481 238.022C81.4481 236.833 80.4846 235.87 79.2962 235.87C78.1078 235.87 77.1444 236.833 77.1444 238.022C77.1444 239.21 78.1078 240.174 79.2962 240.174Z" fill="#4F4F4F"/>
<path d="M86.6754 240.174C87.8638 240.174 88.8272 239.21 88.8272 238.022C88.8272 236.833 87.8638 235.87 86.6754 235.87C85.487 235.87 84.5235 236.833 84.5235 238.022C84.5235 239.21 85.487 240.174 86.6754 240.174Z" fill="#4F4F4F"/>
<path d="M94.0545 240.174C95.2429 240.174 96.2063 239.21 96.2063 238.022C96.2063 236.833 95.2429 235.87 94.0545 235.87C92.866 235.87 91.9026 236.833 91.9026 238.022C91.9026 239.21 92.866 240.174 94.0545 240.174Z" fill="#4F4F4F"/>
<path d="M239.155 298.226L242.341 304.68L249.464 305.715L244.31 310.739L245.526 317.833L239.155 314.483L232.784 317.833L234.001 310.739L228.847 305.715L235.97 304.68L239.155 298.226Z" fill="url(#paint1_linear_1171:1711)"/>
<path d="M267.819 298.226L271.005 304.68L278.128 305.715L272.973 310.739L274.19 317.833L267.819 314.483L261.448 317.833L262.665 310.739L257.51 305.715L264.634 304.68L267.819 298.226Z" fill="url(#paint2_linear_1171:1711)"/>
<path d="M296.48 298.226L299.665 304.68L306.788 305.715L301.634 310.739L302.851 317.833L296.48 314.483L290.109 317.833L291.325 310.739L286.171 305.715L293.294 304.68L296.48 298.226Z" fill="url(#paint3_linear_1171:1711)"/>
<path d="M325.14 298.226L328.326 304.68L335.449 305.715L330.294 310.739L331.511 317.833L325.14 314.483L318.769 317.833L319.986 310.739L314.831 305.715L321.955 304.68L325.14 298.226Z" fill="url(#paint4_linear_1171:1711)"/>
<path d="M353.801 298.226L356.986 304.68L364.109 305.715L358.955 310.739L360.172 317.833L353.801 314.483L347.429 317.833L348.646 310.739L343.492 305.715L350.615 304.68L353.801 298.226Z" fill="url(#paint5_linear_1171:1711)"/>
<path d="M210.893 271.08H94.331V344.979H210.893V271.08Z" fill="#4F4F4F"/>
<path opacity="0.1" d="M118.101 147.914L0 228.987V187.453L57.5963 147.914H118.101Z" fill="#121212"/>
<path opacity="0.1" d="M252.418 147.914L0 321.193V279.653L191.913 147.914H252.418Z" fill="#121212"/>
<path d="M68.2819 208.381L60.1916 199.707L68.8654 191.617L76.9557 200.291L68.2819 208.381ZM61.4811 199.752L68.3268 207.091L75.6662 200.246L68.8205 192.907L61.4811 199.752Z" fill="#F6F9FF"/>
<path d="M335.267 202.925H323.406V191.064H335.267V202.925ZM324.318 202.012H334.355V191.976H324.318V202.012Z" fill="#4F4F4F"/>
<path d="M408.757 304.145C412.102 304.145 414.813 301.434 414.813 298.09C414.813 294.746 412.102 292.035 408.757 292.035C405.413 292.035 402.702 294.746 402.702 298.09C402.702 301.434 405.413 304.145 408.757 304.145Z" fill="#F6F9FF"/>
<path d="M408.755 315.583C405.295 315.583 401.913 314.557 399.036 312.635C396.159 310.713 393.917 307.981 392.593 304.785C391.269 301.588 390.922 298.071 391.597 294.678C392.272 291.284 393.938 288.167 396.385 285.721C398.831 283.274 401.949 281.608 405.342 280.933C408.736 280.258 412.253 280.605 415.45 281.929C418.646 283.253 421.378 285.495 423.301 288.372C425.223 291.248 426.249 294.63 426.249 298.09C426.244 302.728 424.399 307.175 421.119 310.454C417.84 313.734 413.393 315.578 408.755 315.583ZM408.755 281.943C405.561 281.943 402.439 282.89 399.783 284.664C397.128 286.438 395.058 288.96 393.836 291.911C392.614 294.861 392.294 298.108 392.917 301.241C393.54 304.373 395.078 307.25 397.336 309.508C399.595 311.767 402.472 313.304 405.605 313.928C408.737 314.551 411.984 314.231 414.935 313.009C417.885 311.786 420.407 309.717 422.182 307.061C423.956 304.406 424.903 301.284 424.903 298.09C424.898 293.809 423.195 289.705 420.168 286.678C417.141 283.651 413.036 281.948 408.755 281.943Z" fill="#121212"/>
<path d="M137.59 328.781C140.371 339.063 149.899 345.431 149.899 345.431C149.899 345.431 154.916 335.129 152.135 324.847C149.353 314.565 139.826 308.197 139.826 308.197C139.826 308.197 134.808 318.499 137.59 328.781Z" fill="#FEFEFE"/>
<path d="M141.676 326.569C149.309 333.999 150.241 345.42 150.241 345.42C150.241 345.42 138.798 344.796 131.165 337.366C123.533 329.936 122.6 318.515 122.6 318.515C122.6 318.515 134.043 319.139 141.676 326.569Z" fill="url(#paint6_linear_1171:1711)"/>
<path d="M162.897 328.781C160.115 339.063 150.587 345.431 150.587 345.431C150.587 345.431 145.57 335.129 148.351 324.847C151.133 314.565 160.661 308.197 160.661 308.197C160.661 308.197 165.678 318.499 162.897 328.781Z" fill="#FEFEFE"/>
<path d="M387.936 11.4492H340.761V66.4084H387.936V11.4492Z" fill="#F6F9FF"/>
<path d="M371.902 148.549L371.246 147.909C374.261 144.491 376.546 140.493 377.962 136.161C380.19 129.455 381.279 118.863 373.809 106.491C366.165 93.832 365.821 83.5502 366.879 77.154C368.029 70.1942 370.964 66.2929 371.089 66.1304L371.817 66.6865C371.787 66.7248 368.878 70.6052 367.774 77.3575C366.754 83.5914 367.11 93.624 374.593 106.017C382.254 118.706 381.119 129.591 378.818 136.489C376.325 143.962 372.082 148.365 371.902 148.549Z" fill="#4F4F4F"/>
<path d="M406.258 66.8665H340.303V0.915527H406.258V66.8665ZM341.219 65.9505H405.342V1.83151H341.219V65.9505Z" fill="#4F4F4F"/>
<path d="M394.351 20.1523H354.045V21.0683H394.351V20.1523Z" fill="#4F4F4F"/>
<path d="M394.351 30.2266H354.045V31.1426H394.351V30.2266Z" fill="#4F4F4F"/>
<path d="M394.351 40.3022H354.045V41.2182H394.351V40.3022Z" fill="#4F4F4F"/>
<path d="M461.679 51.2949H414.503V106.254H461.679V51.2949Z" fill="#F6F9FF"/>
<path d="M445.64 188.394L444.984 187.755C447.999 184.336 450.284 180.339 451.7 176.007C453.928 169.3 455.017 158.709 447.546 146.336C439.903 133.678 439.559 123.396 440.616 117C441.767 110.04 444.702 106.139 444.827 105.976L445.554 106.532C445.525 106.57 442.615 110.451 441.511 117.203C440.492 123.437 440.848 133.47 448.331 145.863C455.992 158.552 454.857 169.437 452.556 176.335C450.063 183.808 445.819 188.211 445.64 188.394Z" fill="#4F4F4F"/>
<path d="M480 106.713H414.045V40.7617H480V106.713ZM414.962 105.797H479.084V41.6777H414.962V105.797Z" fill="#4F4F4F"/>
<path d="M468.09 59.998H427.784V60.914H468.09V59.998Z" fill="#4F4F4F"/>
<path d="M468.09 70.0723H427.784V70.9883H468.09V70.0723Z" fill="#4F4F4F"/>
<path d="M468.09 80.1479H427.784V81.0639H468.09V80.1479Z" fill="#4F4F4F"/>
<path d="M110.84 10.5332H63.6639V65.4924H110.84V10.5332Z" fill="#F6F9FF"/>
<path d="M94.8016 147.633L94.1461 146.993C97.1609 143.575 99.446 139.578 100.862 135.246C103.09 128.539 104.179 117.948 96.7084 105.575C89.065 92.9165 88.721 82.6347 89.7782 76.2384C90.9288 69.2786 93.8641 65.3774 93.9884 65.2148L94.7164 65.771C94.6871 65.8093 91.7773 69.6897 90.6732 76.4419C89.6538 82.6758 90.0094 92.7085 97.4924 105.102C105.154 117.79 104.019 128.676 101.718 135.573C99.2245 143.047 94.9812 147.449 94.8016 147.633Z" fill="#4F4F4F"/>
<path d="M129.161 65.951H63.2068V0H129.161V65.951ZM64.1228 65.035H128.245V0.915986H64.1228V65.035Z" fill="#4F4F4F"/>
<path d="M117.254 19.2363H76.9488V20.1523H117.254V19.2363Z" fill="#4F4F4F"/>
<path d="M117.254 29.3125H76.9488V30.2285H117.254V29.3125Z" fill="#4F4F4F"/>
<path d="M117.254 39.3867H76.9488V40.3027H117.254V39.3867Z" fill="#4F4F4F"/>
<path d="M215.019 167.699L218.205 174.153L225.328 175.188L220.173 180.212L221.39 187.306L215.019 183.957L208.648 187.306L209.865 180.212L204.711 175.188L211.834 174.153L215.019 167.699Z" fill="#F6F9FF"/>
<path d="M226.535 22.1719H226.535C237.542 22.1719 246.465 32.0739 246.465 44.2887V59.8077H241.692L238.928 54.0578L239.619 59.8077H208.939L206.427 54.5805L207.055 59.8077H203.601V47.6225C203.601 33.5665 213.869 22.1719 226.535 22.1719Z" fill="#121212"/>
<path d="M249.373 123.564L261.61 128.764L304.133 163.332C305.697 165.253 306.655 167.595 306.886 170.062C307.192 174.038 320.041 194.84 315.452 197.593C310.863 200.346 294.344 208.606 293.426 203.1C292.508 197.593 287.613 174.038 287.613 174.038L246.62 137.33L249.373 123.564Z" fill="#121212"/>
<path d="M297.401 198.512L302.602 213.807C302.602 213.807 297.095 219.62 299.849 224.514V241.339H304.132L305.355 232.468C305.355 232.468 310.233 241.227 312.697 241.339C317.862 241.574 328.091 243.411 328.397 240.658C328.703 237.905 320.651 235.221 320.651 235.221L312.085 211.666L308.414 197.289L297.401 198.512Z" fill="#121212"/>
<path d="M217.557 119.587C217.557 119.587 214.804 146.507 222.758 151.401C230.712 156.296 265.893 171.897 265.893 171.897C265.893 171.897 250.903 185.969 253.962 189.334C257.021 192.699 270.788 201.876 272.623 200.041C274.459 198.205 294.955 176.18 292.508 169.144C290.061 162.108 256.103 139.165 256.103 139.165L252.126 124.788L250.903 113.163L238.054 104.904L217.557 119.587Z" fill="#121212"/>
<path d="M231.572 56.9117C238.616 56.9117 244.326 51.2021 244.326 44.159C244.326 37.1158 238.616 31.4062 231.572 31.4062C224.529 31.4062 218.819 37.1158 218.819 44.159C218.819 51.2021 224.529 56.9117 231.572 56.9117Z" fill="#FFB9B9"/>
<path d="M221.687 49.3828C221.687 49.3828 222.299 61.0072 212.816 64.6781C203.332 68.349 236.371 92.2097 236.371 92.2097V65.5958C236.371 65.5958 232.089 61.0073 236.371 53.9714L221.687 49.3828Z" fill="#FFB9B9"/>
<path d="M201.343 103.986L203.791 115.917L211.133 156.908C211.133 156.908 205.014 174.345 213.274 174.039C221.534 173.733 217.557 155.073 217.557 155.073L213.274 121.117V107.963L201.343 103.986Z" fill="#FFB9B9"/>
<path d="M253.958 98.1738L256.712 108.881L269.254 139.165C269.254 139.165 277.82 153.543 270.784 153.237C263.748 152.931 263.748 139.165 263.748 139.165L249.369 114.693V100.927L253.958 98.1738Z" fill="#FFB9B9"/>
<path d="M256.102 187.499L246.006 196.982C246.006 196.982 238.97 195.453 236.217 203.712C233.464 211.971 231.628 217.172 231.628 217.172L235.299 219.313L239.888 212.889C239.888 212.889 242.641 224.514 245.395 225.431C248.148 226.349 261.914 232.467 260.691 225.431L253.96 215.642C253.96 215.642 253.043 204.63 255.796 203.712C258.549 202.794 265.891 193.617 265.891 193.617L256.102 187.499Z" fill="#121212"/>
<path d="M217.069 129.07C217.069 129.07 245.826 118.669 247.661 119.587C249.028 120.191 250.483 120.568 251.97 120.705L251.944 116.528C251.944 116.528 242.461 113.163 237.26 115.304C232.059 117.446 216.151 126.929 216.151 126.929L217.069 129.07Z" fill="#4F4F4F"/>
<path d="M234.535 86.0906C234.535 86.0906 226.275 76.6075 223.827 70.7953C222.279 67.2718 219.437 64.4771 215.887 62.9883C215.887 62.9883 197.518 67.1244 197.824 74.4662C198.13 81.8079 209.449 93.1264 209.449 93.1264C209.449 93.1264 207.919 133.812 216.179 133.2C217.961 131.074 219.218 128.559 219.85 125.858C220.768 121.576 249.219 116.987 249.219 116.987C249.219 116.987 251.666 121.27 251.972 119.434C252.278 117.599 249.525 72.6307 249.525 72.6307L234.936 62.9883L234.535 86.0906Z" fill="#4F4F4F"/>
<path d="M200.181 71.5126L199.976 71.6275C199.322 71.9944 198.778 72.5288 198.399 73.1758C198.02 73.8227 197.821 74.5589 197.821 75.3086L197.824 98.0108C197.822 98.6279 197.685 99.2371 197.424 99.7961C197.163 100.355 196.783 100.851 196.311 101.248C195.132 102.251 194.04 103.695 196.295 104.447C199.966 105.67 214.344 111.788 214.65 109.647C214.956 107.506 215.568 105.058 214.65 105.058C213.932 105.058 209.651 83.1224 206.211 73.7434C206.001 73.1692 205.668 72.6475 205.237 72.2144C204.805 71.7813 204.285 71.4471 203.711 71.2349C203.138 71.0228 202.525 70.9377 201.916 70.9857C201.306 71.0336 200.714 71.2134 200.181 71.5126Z" fill="#4F4F4F"/>
<path d="M245.394 71.5605L249.677 72.7842L254.572 93.8917C254.572 93.8917 260.384 95.1153 258.549 97.2567C256.713 99.398 249.065 104.904 249.065 104.904L245.394 71.5605Z" fill="#4F4F4F"/>
<path d="M220.87 28.265C221.829 26.9772 223.072 25.9277 224.503 25.1979C225.933 24.468 227.512 24.0775 229.118 24.0566H229.509C237.053 24.0566 243.169 30.883 243.169 39.3037V39.3037H240.641L240.233 36.1964L239.634 39.3037H224.641L223.385 36.6749L223.699 39.3037H220.75C219.374 46.1386 221.351 52.9735 226.683 59.8084H221.658L219.146 54.5508L219.774 59.8084H210.196L208.312 47.7159C208.312 38.6597 213.574 30.9802 220.87 28.265Z" fill="#121212"/>
<defs>
<linearGradient id="paint0_linear_1171:1711" x1="447.023" y1="359.999" x2="447.023" y2="147.914" gradientUnits="userSpaceOnUse">
<stop stop-color="#14B78E"/>
<stop offset="1" stop-color="#2ADABF"/>
</linearGradient>
<linearGradient id="paint1_linear_1171:1711" x1="249.464" y1="317.833" x2="249.464" y2="298.226" gradientUnits="userSpaceOnUse">
<stop stop-color="#14B78E"/>
<stop offset="1" stop-color="#2ADABF"/>
</linearGradient>
<linearGradient id="paint2_linear_1171:1711" x1="278.128" y1="317.833" x2="278.128" y2="298.226" gradientUnits="userSpaceOnUse">
<stop stop-color="#14B78E"/>
<stop offset="1" stop-color="#2ADABF"/>
</linearGradient>
<linearGradient id="paint3_linear_1171:1711" x1="306.788" y1="317.833" x2="306.788" y2="298.226" gradientUnits="userSpaceOnUse">
<stop stop-color="#14B78E"/>
<stop offset="1" stop-color="#2ADABF"/>
</linearGradient>
<linearGradient id="paint4_linear_1171:1711" x1="335.449" y1="317.833" x2="335.449" y2="298.226" gradientUnits="userSpaceOnUse">
<stop stop-color="#14B78E"/>
<stop offset="1" stop-color="#2ADABF"/>
</linearGradient>
<linearGradient id="paint5_linear_1171:1711" x1="364.109" y1="317.833" x2="364.109" y2="298.226" gradientUnits="userSpaceOnUse">
<stop stop-color="#14B78E"/>
<stop offset="1" stop-color="#2ADABF"/>
</linearGradient>
<linearGradient id="paint6_linear_1171:1711" x1="150.241" y1="345.42" x2="150.241" y2="318.515" gradientUnits="userSpaceOnUse">
<stop stop-color="#14B78E"/>
<stop offset="1" stop-color="#2ADABF"/>
</linearGradient>
</defs>
</svg>
