<svg width="20" height="20" viewBox="0 0 20 20" fill="none" xmlns="http://www.w3.org/2000/svg">
<path d="M10 0C8.02219 0 6.08879 0.58649 4.4443 1.6853C2.79981 2.78412 1.51809 4.3459 0.761209 6.17317C0.00433284 8.00043 -0.193701 10.0111 0.192152 11.9509C0.578004 13.8907 1.53041 15.6725 2.92894 17.0711C4.32746 18.4696 6.10929 19.422 8.0491 19.8079C9.98891 20.1937 11.9996 19.9957 13.8268 19.2388C15.6541 18.4819 17.2159 17.2002 18.3147 15.5557C19.4135 13.9112 20 11.9778 20 10C20 8.68678 19.7413 7.38642 19.2388 6.17317C18.7363 4.95991 17.9997 3.85752 17.0711 2.92893C16.1425 2.00035 15.0401 1.26375 13.8268 0.761205C12.6136 0.258658 11.3132 0 10 0ZM11 17.93V17C11 16.7348 10.8946 16.4804 10.7071 16.2929C10.5196 16.1054 10.2652 16 10 16C9.73479 16 9.48043 16.1054 9.2929 16.2929C9.10536 16.4804 9 16.7348 9 17V17.93C7.23998 17.7068 5.60408 16.9049 4.34959 15.6504C3.0951 14.3959 2.2932 12.76 2.07 11H3C3.26522 11 3.51957 10.8946 3.70711 10.7071C3.89465 10.5196 4 10.2652 4 10C4 9.73478 3.89465 9.48043 3.70711 9.29289C3.51957 9.10536 3.26522 9 3 9H2.07C2.2932 7.23998 3.0951 5.60408 4.34959 4.34959C5.60408 3.0951 7.23998 2.29319 9 2.07V3C9 3.26522 9.10536 3.51957 9.2929 3.70711C9.48043 3.89464 9.73479 4 10 4C10.2652 4 10.5196 3.89464 10.7071 3.70711C10.8946 3.51957 11 3.26522 11 3V2.07C12.76 2.29319 14.3959 3.0951 15.6504 4.34959C16.9049 5.60408 17.7068 7.23998 17.93 9H17C16.7348 9 16.4804 9.10536 16.2929 9.29289C16.1054 9.48043 16 9.73478 16 10C16 10.2652 16.1054 10.5196 16.2929 10.7071C16.4804 10.8946 16.7348 11 17 11H17.93C17.7068 12.76 16.9049 14.3959 15.6504 15.6504C14.3959 16.9049 12.76 17.7068 11 17.93ZM13.14 5.55L8.14001 7.67C7.90692 7.77099 7.721 7.95691 7.62 8.19L5.5 13.19C5.42125 13.3734 5.39916 13.5761 5.43658 13.7722C5.47401 13.9682 5.56923 14.1485 5.71 14.29C5.89463 14.4784 6.14623 14.5862 6.41 14.59C6.54837 14.5901 6.68503 14.5594 6.81 14.5L11.81 12.38C12.0431 12.279 12.229 12.0931 12.33 11.86L14.45 6.86C14.5273 6.67676 14.5482 6.47463 14.51 6.27946C14.4718 6.08429 14.3763 5.90493 14.2357 5.7643C14.0951 5.62368 13.9157 5.52818 13.7205 5.49001C13.5254 5.45183 13.3232 5.47272 13.14 5.55ZM10.65 10.65L8.37 11.65L9.37 9.37L11.65 8.37L10.65 10.65Z" fill="#959393"/>
</svg>
