<svg width="18" height="13" viewBox="0 0 18 13" fill="none" xmlns="http://www.w3.org/2000/svg">
<path opacity="0.5" fill-rule="evenodd" clip-rule="evenodd" d="M16.7089 4.33856C17.316 3.94427 17.316 3.0556 16.7089 2.66131L13.5448 0.606136C12.8795 0.17403 12.0001 0.651477 12.0001 1.44476L12.0001 1.99993L4.00008 1.99994C3.4478 1.99994 3.00008 2.44765 3.00008 2.99994L3.00008 3.99994C3.00008 4.55222 3.4478 4.99994 4.00008 4.99994L12.0001 4.99993L12.0001 5.55511C12.0001 6.34839 12.8795 6.82584 13.5448 6.39373L16.7089 4.33856ZM1.29123 8.66131C0.684172 9.0556 0.684173 9.94427 1.29123 10.3386L4.45538 12.3937C5.12065 12.8258 6.00008 12.3484 6.00008 11.5551L6.00008 10.9999H14.0001C14.5524 10.9999 15.0001 10.5522 15.0001 9.99994V8.99994C15.0001 8.44765 14.5524 7.99993 14.0001 7.99993H6.00008L6.00008 7.44476C6.00008 6.65148 5.12065 6.17403 4.45537 6.60614L1.29123 8.66131Z" fill="black"/>
</svg>
