<svg width="21" height="22" viewBox="0 0 21 22" fill="none" xmlns="http://www.w3.org/2000/svg">
<path d="M18.8999 11.6599C18.7396 11.4774 18.6512 11.2428 18.6512 10.9999C18.6512 10.757 18.7396 10.5224 18.8999 10.3399L20.1799 8.89989C20.3209 8.74256 20.4085 8.5446 20.4301 8.3344C20.4516 8.12421 20.4061 7.91258 20.2999 7.72989L18.2999 4.2699C18.1948 4.08742 18.0348 3.94277 17.8426 3.85658C17.6505 3.77039 17.4361 3.74705 17.2299 3.7899L15.3499 4.1699C15.1107 4.21932 14.8616 4.17948 14.6498 4.0579C14.4379 3.93631 14.2779 3.74138 14.1999 3.5099L13.5899 1.6799C13.5228 1.48127 13.395 1.30876 13.2245 1.18674C13.0541 1.06471 12.8495 0.999354 12.6399 0.999895H8.6399C8.42183 0.988513 8.20603 1.04882 8.02546 1.17161C7.84489 1.2944 7.70948 1.47291 7.6399 1.6799L7.0799 3.5099C7.0019 3.74138 6.84187 3.93631 6.63001 4.0579C6.41815 4.17948 6.16911 4.21932 5.9299 4.1699L3.9999 3.7899C3.80445 3.76228 3.6052 3.79312 3.42724 3.87853C3.24929 3.96395 3.1006 4.10012 2.9999 4.2699L0.999896 7.72989C0.891056 7.91054 0.842118 8.12098 0.860079 8.33112C0.878039 8.54126 0.961979 8.74034 1.0999 8.89989L2.3699 10.3399C2.53022 10.5224 2.61863 10.757 2.61863 10.9999C2.61863 11.2428 2.53022 11.4774 2.3699 11.6599L1.0999 13.0999C0.961979 13.2595 0.878039 13.4585 0.860079 13.6687C0.842118 13.8788 0.891056 14.0892 0.999896 14.2699L2.9999 17.7299C3.10499 17.9124 3.26502 18.057 3.45715 18.1432C3.64928 18.2294 3.86372 18.2527 4.0699 18.2099L5.9499 17.8299C6.18911 17.7805 6.43815 17.8203 6.65001 17.9419C6.86187 18.0635 7.0219 18.2584 7.0999 18.4899L7.7099 20.3199C7.77948 20.5269 7.91489 20.7054 8.09546 20.8282C8.27603 20.951 8.49183 21.0113 8.7099 20.9999H12.7099C12.9195 21.0004 13.1241 20.9351 13.2945 20.8131C13.465 20.691 13.5928 20.5185 13.6599 20.3199L14.2699 18.4899C14.3479 18.2584 14.5079 18.0635 14.7198 17.9419C14.9316 17.8203 15.1807 17.7805 15.4199 17.8299L17.2999 18.2099C17.5061 18.2527 17.7205 18.2294 17.9126 18.1432C18.1048 18.057 18.2648 17.9124 18.3699 17.7299L20.3699 14.2699C20.4761 14.0872 20.5216 13.8756 20.5001 13.6654C20.4785 13.4552 20.3909 13.2572 20.2499 13.0999L18.8999 11.6599ZM17.4099 12.9999L18.2099 13.8999L16.9299 16.1199L15.7499 15.8799C15.0297 15.7327 14.2805 15.855 13.6445 16.2237C13.0085 16.5924 12.53 17.1817 12.2999 17.8799L11.9199 18.9999H9.3599L8.9999 17.8599C8.76975 17.1617 8.29128 16.5724 7.6553 16.2037C7.01932 15.835 6.27012 15.7127 5.5499 15.8599L4.3699 16.0999L3.0699 13.8899L3.8699 12.9899C4.36185 12.4399 4.63383 11.7278 4.63383 10.9899C4.63383 10.252 4.36185 9.53992 3.8699 8.98989L3.0699 8.0899L4.3499 5.88989L5.5299 6.1299C6.25012 6.27712 6.99932 6.15478 7.6353 5.78609C8.27128 5.41741 8.74975 4.82805 8.9799 4.1299L9.3599 2.9999H11.9199L12.2999 4.13989C12.53 4.83805 13.0085 5.42741 13.6445 5.79609C14.2805 6.16478 15.0297 6.28712 15.7499 6.13989L16.9299 5.8999L18.2099 8.11989L17.4099 9.0199C16.9235 9.56866 16.6549 10.2766 16.6549 11.0099C16.6549 11.7432 16.9235 12.4511 17.4099 12.9999ZM10.6399 6.9999C9.84877 6.9999 9.07541 7.23449 8.41761 7.67402C7.75982 8.11354 7.24713 8.73826 6.94438 9.46916C6.64163 10.2001 6.56241 11.0043 6.71675 11.7803C6.8711 12.5562 7.25206 13.2689 7.81147 13.8283C8.37088 14.3877 9.08361 14.7687 9.85954 14.923C10.6355 15.0774 11.4397 14.9982 12.1706 14.6954C12.9015 14.3927 13.5262 13.88 13.9658 13.2222C14.4053 12.5644 14.6399 11.791 14.6399 10.9999C14.6399 9.93903 14.2185 8.92161 13.4683 8.17147C12.7182 7.42132 11.7008 6.9999 10.6399 6.9999ZM10.6399 12.9999C10.2443 12.9999 9.85765 12.8826 9.52876 12.6628C9.19986 12.4431 8.94351 12.1307 8.79214 11.7653C8.64076 11.3998 8.60116 10.9977 8.67833 10.6097C8.7555 10.2218 8.94598 9.86539 9.22568 9.58568C9.50539 9.30598 9.86175 9.11549 10.2497 9.03832C10.6377 8.96115 11.0398 9.00076 11.4053 9.15214C11.7707 9.30351 12.0831 9.55986 12.3028 9.88875C12.5226 10.2177 12.6399 10.6043 12.6399 10.9999C12.6399 11.5303 12.4292 12.039 12.0541 12.4141C11.679 12.7892 11.1703 12.9999 10.6399 12.9999Z" fill="#959393"/>
</svg>
