<svg width="21" height="14" viewBox="0 0 21 14" fill="none" xmlns="http://www.w3.org/2000/svg">
<path d="M7.5 5C7.23478 5 6.98043 5.10536 6.79289 5.29289C6.60536 5.48043 6.5 5.73478 6.5 6V8C6.5 8.26522 6.60536 8.51957 6.79289 8.70711C6.98043 8.89464 7.23478 9 7.5 9C7.76522 9 8.01957 8.89464 8.20711 8.70711C8.39464 8.51957 8.5 8.26522 8.5 8V6C8.5 5.73478 8.39464 5.48043 8.20711 5.29289C8.01957 5.10536 7.76522 5 7.5 5ZM19.5 6C19.7652 6 20.0196 5.89464 20.2071 5.70711C20.3946 5.51957 20.5 5.26522 20.5 5V1C20.5 0.734784 20.3946 0.48043 20.2071 0.292893C20.0196 0.105357 19.7652 0 19.5 0H1.5C1.23478 0 0.98043 0.105357 0.792893 0.292893C0.605357 0.48043 0.5 0.734784 0.5 1V5C0.5 5.26522 0.605357 5.51957 0.792893 5.70711C0.98043 5.89464 1.23478 6 1.5 6C1.76522 6 2.01957 6.10536 2.20711 6.29289C2.39464 6.48043 2.5 6.73478 2.5 7C2.5 7.26522 2.39464 7.51957 2.20711 7.70711C2.01957 7.89464 1.76522 8 1.5 8C1.23478 8 0.98043 8.10536 0.792893 8.29289C0.605357 8.48043 0.5 8.73478 0.5 9V13C0.5 13.2652 0.605357 13.5196 0.792893 13.7071C0.98043 13.8946 1.23478 14 1.5 14H19.5C19.7652 14 20.0196 13.8946 20.2071 13.7071C20.3946 13.5196 20.5 13.2652 20.5 13V9C20.5 8.73478 20.3946 8.48043 20.2071 8.29289C20.0196 8.10536 19.7652 8 19.5 8C19.2348 8 18.9804 7.89464 18.7929 7.70711C18.6054 7.51957 18.5 7.26522 18.5 7C18.5 6.73478 18.6054 6.48043 18.7929 6.29289C18.9804 6.10536 19.2348 6 19.5 6ZM18.5 4.18C17.9208 4.3902 17.4205 4.77363 17.0668 5.27816C16.7132 5.7827 16.5235 6.38388 16.5235 7C16.5235 7.61612 16.7132 8.2173 17.0668 8.72184C17.4205 9.22637 17.9208 9.6098 18.5 9.82V12H8.5C8.5 11.7348 8.39464 11.4804 8.20711 11.2929C8.01957 11.1054 7.76522 11 7.5 11C7.23478 11 6.98043 11.1054 6.79289 11.2929C6.60536 11.4804 6.5 11.7348 6.5 12H2.5V9.82C3.07915 9.6098 3.57954 9.22637 3.93316 8.72184C4.28678 8.2173 4.47648 7.61612 4.47648 7C4.47648 6.38388 4.28678 5.7827 3.93316 5.27816C3.57954 4.77363 3.07915 4.3902 2.5 4.18V2H6.5C6.5 2.26522 6.60536 2.51957 6.79289 2.70711C6.98043 2.89464 7.23478 3 7.5 3C7.76522 3 8.01957 2.89464 8.20711 2.70711C8.39464 2.51957 8.5 2.26522 8.5 2H18.5V4.18Z" fill="#FEFEFE"/>
</svg>
