<svg width="36" height="36" viewBox="0 0 36 36" fill="none" xmlns="http://www.w3.org/2000/svg">
<g filter="url(#filter0_d_1216:6591)">
<circle cx="18" cy="17" r="16" fill="#FEFEFE"/>
<path d="M23.4399 12.3333C22.7332 11.6248 21.7964 11.1923 20.7988 11.1141C19.8011 11.0358 18.8084 11.3169 17.9999 11.9066C17.1516 11.2757 16.0959 10.9896 15.0451 11.106C13.9944 11.2223 13.0268 11.7325 12.3372 12.5337C11.6475 13.3349 11.2871 14.3676 11.3284 15.424C11.3697 16.4803 11.8097 17.4817 12.5599 18.2266L16.6999 22.3733C17.0465 22.7145 17.5134 22.9057 17.9999 22.9057C18.4863 22.9057 18.9532 22.7145 19.2999 22.3733L23.4399 18.2266C24.2182 17.4435 24.6551 16.3841 24.6551 15.2799C24.6551 14.1758 24.2182 13.1164 23.4399 12.3333ZM22.4999 17.3066L18.3599 21.4466C18.3127 21.4942 18.2567 21.5319 18.1949 21.5577C18.1331 21.5835 18.0668 21.5968 17.9999 21.5968C17.9329 21.5968 17.8666 21.5835 17.8048 21.5577C17.743 21.5319 17.687 21.4942 17.6399 21.4466L13.4999 17.2866C12.977 16.7522 12.6843 16.0343 12.6843 15.2866C12.6843 14.539 12.977 13.8211 13.4999 13.2866C14.0326 12.7606 14.7512 12.4657 15.4999 12.4657C16.2485 12.4657 16.9671 12.7606 17.4999 13.2866C17.5618 13.3491 17.6356 13.3987 17.7168 13.4325C17.798 13.4664 17.8852 13.4838 17.9732 13.4838C18.0612 13.4838 18.1483 13.4664 18.2296 13.4325C18.3108 13.3987 18.3845 13.3491 18.4465 13.2866C18.9793 12.7606 19.6978 12.4657 20.4465 12.4657C21.1952 12.4657 21.9138 12.7606 22.4465 13.2866C22.9765 13.814 23.2789 14.5281 23.2889 15.2757C23.2989 16.0234 23.0156 16.7452 22.4999 17.2866V17.3066Z" fill="#F86565"/>
</g>
<defs>
<filter id="filter0_d_1216:6591" x="0" y="0" width="36" height="36" filterUnits="userSpaceOnUse" color-interpolation-filters="sRGB">
<feFlood flood-opacity="0" result="BackgroundImageFix"/>
<feColorMatrix in="SourceAlpha" type="matrix" values="0 0 0 0 0 0 0 0 0 0 0 0 0 0 0 0 0 0 127 0" result="hardAlpha"/>
<feOffset dy="1"/>
<feGaussianBlur stdDeviation="1"/>
<feColorMatrix type="matrix" values="0 0 0 0 0 0 0 0 0 0 0 0 0 0 0 0 0 0 0.24 0"/>
<feBlend mode="normal" in2="BackgroundImageFix" result="effect1_dropShadow_1216:6591"/>
<feBlend mode="normal" in="SourceGraphic" in2="effect1_dropShadow_1216:6591" result="shape"/>
</filter>
</defs>
</svg>
