<svg width="28" height="27" viewBox="0 0 28 27" fill="none" xmlns="http://www.w3.org/2000/svg">
<path d="M26.1597 10.6734L16.8264 1.34003C16.0634 0.616021 15.0516 0.212402 13.9997 0.212402C12.9479 0.212402 11.9361 0.616021 11.1731 1.34003L1.83974 10.6734C1.09067 11.4234 0.669922 12.44 0.669922 13.5C0.669922 14.56 1.09067 15.5767 1.83974 16.3267L11.1731 25.66C11.9231 26.4091 12.9397 26.8298 13.9997 26.8298C15.0597 26.8298 16.0764 26.4091 16.8264 25.66L26.1597 16.3267C26.9088 15.5767 27.3295 14.56 27.3295 13.5C27.3295 12.44 26.9088 11.4234 26.1597 10.6734V10.6734ZM24.2797 14.4467L14.9464 23.78C14.8225 23.905 14.675 24.0042 14.5125 24.0719C14.35 24.1396 14.1758 24.1744 13.9997 24.1744C13.8237 24.1744 13.6494 24.1396 13.487 24.0719C13.3245 24.0042 13.177 23.905 13.0531 23.78L3.71974 14.4467C3.59476 14.3227 3.49557 14.1753 3.42788 14.0128C3.36019 13.8503 3.32534 13.676 3.32534 13.5C3.32534 13.324 3.36019 13.1497 3.42788 12.9873C3.49557 12.8248 3.59476 12.6773 3.71974 12.5534L13.0531 3.22003C13.177 3.09506 13.3245 2.99587 13.487 2.92818C13.6494 2.86048 13.8237 2.82563 13.9997 2.82563C14.1758 2.82563 14.35 2.86048 14.5125 2.92818C14.675 2.99587 14.8225 3.09506 14.9464 3.22003L24.2797 12.5534C24.4047 12.6773 24.5039 12.8248 24.5716 12.9873C24.6393 13.1497 24.6741 13.324 24.6741 13.5C24.6741 13.676 24.6393 13.8503 24.5716 14.0128C24.5039 14.1753 24.4047 14.3227 24.2797 14.4467ZM16.9464 9.8867C16.6953 9.63563 16.3548 9.49458 15.9997 9.49458C15.6447 9.49458 15.3041 9.63563 15.0531 9.8867C14.802 10.1378 14.6609 10.4783 14.6609 10.8334C14.6609 11.1884 14.802 11.529 15.0531 11.78L15.4531 12.1667H10.6664C10.3128 12.1667 9.97364 12.3072 9.72359 12.5572C9.47355 12.8073 9.33307 13.1464 9.33307 13.5V16.1667C9.33307 16.5203 9.47355 16.8595 9.72359 17.1095C9.97364 17.3596 10.3128 17.5 10.6664 17.5C11.02 17.5 11.3592 17.3596 11.6092 17.1095C11.8593 16.8595 11.9997 16.5203 11.9997 16.1667V14.8334H15.4531L15.0531 15.22C14.9281 15.344 14.8289 15.4914 14.7612 15.6539C14.6935 15.8164 14.6587 15.9907 14.6587 16.1667C14.6587 16.3427 14.6935 16.517 14.7612 16.6795C14.8289 16.8419 14.9281 16.9894 15.0531 17.1134C15.177 17.2383 15.3245 17.3375 15.487 17.4052C15.6494 17.4729 15.8237 17.5078 15.9997 17.5078C16.1758 17.5078 16.35 17.4729 16.5125 17.4052C16.675 17.3375 16.8225 17.2383 16.9464 17.1134L19.6131 14.4467C19.738 14.3227 19.8372 14.1753 19.9049 14.0128C19.9726 13.8503 20.0075 13.676 20.0075 13.5C20.0075 13.324 19.9726 13.1497 19.9049 12.9873C19.8372 12.8248 19.738 12.6773 19.6131 12.5534L16.9464 9.8867Z" fill="#15B790"/>
</svg>
