<svg width="24" height="24" viewBox="0 0 24 24" fill="none" xmlns="http://www.w3.org/2000/svg">
<path d="M17.4984 14.381C17.2006 14.2322 15.7319 13.512 15.4582 13.4136C15.1845 13.314 14.9855 13.2647 14.7866 13.5624C14.5876 13.8589 14.0149 14.5298 13.84 14.7279C13.6664 14.9259 13.4916 14.9499 13.1937 14.8011C12.3136 14.4523 11.5012 13.9535 10.793 13.3272C10.1399 12.7262 9.5799 12.0321 9.13143 11.2675C8.9578 10.9698 9.11334 10.809 9.26286 10.6614C9.3967 10.5281 9.5619 10.3145 9.71021 10.1405C9.83305 9.99021 9.93374 9.8233 10.0092 9.64475C10.049 9.5627 10.0675 9.47207 10.0631 9.38109C10.0586 9.29012 10.0314 9.20168 9.98392 9.12384C9.90916 8.97501 9.3123 7.51188 9.06391 6.91655C8.82154 6.33803 8.57556 6.41604 8.39108 6.40644C8.21744 6.39804 8.01849 6.39564 7.81953 6.39564C7.66819 6.39984 7.51936 6.43517 7.3824 6.49941C7.24544 6.56366 7.12331 6.65542 7.02371 6.76892C6.68612 7.08715 6.41882 7.47189 6.23883 7.89862C6.05884 8.32535 5.97011 8.78472 5.9783 9.24746C6.07512 10.3688 6.49881 11.4376 7.19735 12.3225C8.4778 14.2334 10.2355 15.78 12.2978 16.8103C12.8541 17.0482 13.4224 17.2573 14.0004 17.4369C14.6097 17.621 15.2539 17.6609 15.8814 17.5533C16.2971 17.4695 16.6907 17.3007 17.0375 17.0578C17.3843 16.8148 17.6767 16.5029 17.8963 16.1418C18.0922 15.6976 18.1526 15.2059 18.0699 14.7279C17.9964 14.603 17.7974 14.5298 17.4984 14.381ZM20.5032 3.4838C18.4533 1.44378 15.7285 0.214779 12.8361 0.0256118C9.94367 -0.163555 7.08075 0.700002 4.78033 2.45551C2.4799 4.21102 0.898744 6.73885 0.331222 9.56838C-0.236299 12.3979 0.248491 15.3363 1.69534 17.8365L0 23.9999L6.33521 22.3471C8.08741 23.2968 10.0507 23.7945 12.0458 23.7946H12.0506C14.4141 23.7934 16.7242 23.095 18.689 21.7874C20.6538 20.4799 22.1853 18.6221 23.0898 16.4485C23.9943 14.275 24.2314 11.8834 23.771 9.57584C23.3106 7.26827 22.1735 5.14831 20.5032 3.48379V3.4838ZM17.3284 20.2743C15.7466 21.2612 13.9175 21.7849 12.0506 21.7854H12.0458C10.2672 21.7853 8.52129 21.309 6.99116 20.4063L6.62822 20.1926L2.86857 21.1745L3.87178 17.5257L3.63666 17.1512C2.5931 15.4946 2.06646 13.5673 2.12332 11.6128C2.18018 9.65828 2.81799 7.76446 3.95609 6.1708C5.0942 4.57713 6.6815 3.35519 8.51726 2.65948C10.353 1.96377 12.3548 1.82555 14.2695 2.26229C16.1842 2.69903 17.9257 3.69111 19.274 5.1131C20.6223 6.53508 21.5167 8.3231 21.8441 10.251C22.1715 12.179 21.9172 14.1603 21.1134 15.9444C20.3097 17.7285 18.9924 19.2353 17.3284 20.2743Z" fill="#15B790"/>
</svg>
