<svg width="24" height="24" viewBox="0 0 24 24" fill="none" xmlns="http://www.w3.org/2000/svg">
<path d="M21.9734 6.68079C21.9722 6.32058 21.9391 5.96119 21.8747 5.60679C21.8028 5.17355 21.666 4.75362 21.469 4.36113C21.2533 3.94866 20.9725 3.57372 20.6373 3.25077C20.1311 2.75525 19.5057 2.39843 18.8216 2.2147C18.1933 2.0624 17.5478 1.99354 16.9016 2.00987L16.8979 2H7.09916L7.09861 2.00989C6.73104 2.007 6.36357 2.02344 5.99772 2.05914C5.59681 2.10188 5.20218 2.19073 4.82163 2.32391C4.19463 2.56035 3.63223 2.94131 3.18007 3.43586C2.72791 3.93041 2.39874 4.52461 2.21928 5.17023C2.06807 5.79342 1.9992 6.43374 2.01444 7.07483L2.00785 16.913V16.9139C2.00659 17.3594 2.03686 17.8044 2.09843 18.2456C2.1653 18.7125 2.30332 19.1663 2.50767 19.5914C2.7959 20.1586 3.2063 20.655 3.70933 21.0447C4.06864 21.331 4.47569 21.5516 4.91172 21.6964C5.55183 21.8943 6.21862 21.9922 6.88859 21.9869C7.30796 21.9895 7.72703 22 8.14659 21.9982C11.1932 21.9854 14.2399 22.0202 17.2867 21.9794C17.6891 21.9706 18.0901 21.928 18.4855 21.852C19.2328 21.7205 19.9283 21.3821 20.4931 20.8754C21.1584 20.297 21.6229 19.5224 21.8196 18.6631C21.9408 18.0877 21.9987 17.5008 21.9923 16.9129V16.7957C21.9923 16.7502 21.975 6.81219 21.9734 6.68079ZM19.2973 15.9306C19.1695 16.23 18.5233 16.4782 17.4294 16.6472C17.3268 16.663 17.2835 16.829 17.2243 17.1007C17.1999 17.2128 17.175 17.3228 17.1409 17.4384C17.1307 17.4871 17.1031 17.5304 17.0633 17.5602C17.0235 17.59 16.9742 17.6042 16.9246 17.6002H16.9075C16.8027 17.5965 16.6986 17.5833 16.5962 17.5609C16.3264 17.5044 16.0515 17.4753 15.7759 17.474C15.5776 17.4745 15.3798 17.4912 15.1842 17.524C14.7717 17.6285 14.3879 17.8245 14.0614 18.0975C13.5094 18.5688 12.8158 18.8422 12.0907 18.8743C12.0492 18.8743 12.0096 18.8728 11.9795 18.8713C11.9556 18.8734 11.931 18.8743 11.9062 18.8743C11.1816 18.8424 10.4884 18.5692 9.93675 18.0981C9.6099 17.8248 9.22575 17.6285 8.81275 17.5239C8.61728 17.4911 8.41946 17.4744 8.22126 17.4739C7.94537 17.4768 7.67051 17.5079 7.40095 17.5667C7.29871 17.5905 7.1946 17.6054 7.08979 17.6113C7.03699 17.6174 6.98384 17.6036 6.94065 17.5726C6.89746 17.5416 6.86732 17.4957 6.85609 17.4438C6.8216 17.3267 6.79688 17.2132 6.77302 17.1039C6.71333 16.8308 6.67002 16.6641 6.56782 16.6483C5.4741 16.4795 4.82792 16.231 4.69926 15.93C4.68614 15.8999 4.67845 15.8678 4.67655 15.835C4.67413 15.7917 4.68777 15.7491 4.71487 15.7153C4.74197 15.6815 4.7806 15.6589 4.82334 15.6519C5.72779 15.4881 6.54279 15.0035 7.11869 14.2871C7.43569 13.9203 7.69926 13.5106 7.90159 13.0701L7.90559 13.0617C7.96517 12.9641 8.00274 12.8548 8.01566 12.7412C8.02859 12.6277 8.01656 12.5127 7.98042 12.4043C7.83949 12.072 7.37281 11.9239 7.06403 11.8259C6.98725 11.8017 6.91462 11.7787 6.85676 11.7556C6.58302 11.6475 6.13288 11.4191 6.19282 11.1038C6.23874 10.985 6.32065 10.8836 6.42708 10.8136C6.53351 10.7437 6.65913 10.7088 6.78638 10.7138C6.84817 10.7124 6.9095 10.7246 6.96601 10.7497C7.19647 10.8677 7.44973 10.9346 7.70844 10.9457C7.86221 10.9566 8.01457 10.9101 8.13593 10.815C8.12788 10.6691 8.1191 10.5232 8.10957 10.3774C7.96894 9.39162 8.02902 8.38763 8.2862 7.4257C8.58859 6.73525 9.08766 6.14917 9.7211 5.74063C10.3545 5.33208 11.0943 5.11917 11.848 5.12848L12.1427 5.12573C12.8975 5.11611 13.6384 5.32898 14.2729 5.73777C14.9075 6.14657 15.4076 6.7332 15.7109 7.42444C15.9681 8.38725 16.0281 9.39209 15.8873 10.3787L15.8843 10.4264C15.8757 10.5621 15.8678 10.6905 15.861 10.8149C15.9712 10.902 16.1084 10.9479 16.2488 10.9446C16.4925 10.9263 16.7301 10.8601 16.9482 10.7498C17.0205 10.7185 17.0986 10.703 17.1773 10.7044C17.2667 10.704 17.3553 10.721 17.4383 10.7543L17.4423 10.7559C17.5362 10.7782 17.6213 10.828 17.6867 10.8989C17.7521 10.9698 17.7949 11.0586 17.8095 11.1539C17.8123 11.3067 17.6987 11.5351 17.1402 11.7557C17.083 11.7784 17.01 11.8015 16.9329 11.826C16.6239 11.9241 16.1576 12.0721 16.0166 12.4042C15.9804 12.5125 15.9684 12.6275 15.9813 12.7411C15.9942 12.8546 16.0318 12.9639 16.0915 13.0614L16.0955 13.07C16.3749 13.7084 16.7982 14.2736 17.3322 14.7215C17.8662 15.1693 18.4964 15.4877 19.1738 15.6517C19.2165 15.6588 19.2551 15.6814 19.2822 15.7152C19.3093 15.749 19.3229 15.7916 19.3205 15.8348C19.3185 15.8679 19.3107 15.9003 19.2973 15.9306Z" fill="#121212"/>
</svg>
