<svg width="72" height="72" viewBox="0 0 72 72" fill="none" xmlns="http://www.w3.org/2000/svg">
<path d="M55.7453 37.7385H64.1823V57.9402H55.7453V37.7385Z" fill="#13B58C"/>
<path d="M39.7641 37.7385H48.2016V57.9402H39.7641V37.7385Z" fill="#13B58C"/>
<path d="M23.7984 37.7385H32.2359V57.9402H23.7984V37.7385Z" fill="#13B58C"/>
<path d="M7.8172 37.7385H16.2542V57.9402H7.8172V37.7385Z" fill="#13B58C"/>
<path d="M66.999 31.4104V29.301H5.0047V31.4104C5.0047 32.5755 5.94898 33.5198 7.11408 33.5198H64.8896C66.0542 33.5198 66.999 32.5755 66.999 31.4104Z" fill="#13B58C"/>
<path d="M69.8894 62.1562H2.11133C0.94623 62.1562 0.00195312 63.1005 0.00195312 64.2656V69.8906C0.00195312 71.0557 0.94623 72 2.11133 72H69.8894C71.0545 72 71.9988 71.0557 71.9988 69.8906V64.2656C71.9988 63.1005 71.0545 62.1562 69.8894 62.1562Z" fill="#13B58C"/>
<path d="M2.10919 25.0796H69.8905C70.8343 25.0796 71.6632 24.4529 71.9203 23.5448C72.1768 22.6368 71.8 21.6684 70.9963 21.174L37.1056 0.313111C36.4278 -0.10437 35.5725 -0.10437 34.8941 0.313111L1.00341 21.174C0.199763 21.6689 -0.177068 22.6368 0.0800119 23.5448C0.337093 24.4529 1.16601 25.0796 2.10919 25.0796ZM34.5661 12.4069H37.4341C38.5992 12.4069 39.5435 13.3512 39.5435 14.5163C39.5435 15.6814 38.5992 16.6256 37.4341 16.6256H34.5661C33.401 16.6256 32.4568 15.6814 32.4568 14.5163C32.4568 13.3512 33.401 12.4069 34.5661 12.4069Z" fill="#13B58C"/>
</svg>
