<svg width="30" height="23" viewBox="0 0 30 23" fill="none" xmlns="http://www.w3.org/2000/svg">
<path d="M27.0025 7.54191C26.8893 6.76305 26.8733 5.42158 27.6639 4.97113C27.678 4.96287 27.6885 4.95095 27.7009 4.9407C28.3473 4.75153 28.7946 4.48605 28.4434 4.12881L18.9088 1.5L3.47014 3.46412C3.47014 3.46412 1.70222 3.69534 1.86015 6.20869C1.94589 7.57662 2.41475 8.24843 2.82479 8.57906L1.55791 8.92842C1.20628 9.28566 1.6535 9.55122 2.29994 9.74008C2.31222 9.75063 2.32259 9.76248 2.33696 9.77074C3.12704 10.2216 3.11183 11.5629 2.99819 12.3419C0.159831 13.0794 1.1787 13.3197 1.1787 13.3197L1.80133 13.4576C1.36338 13.8197 0.928435 14.5064 1.00991 15.8088C1.16792 18.3217 2.62007 18.4951 2.62007 18.4951L12.7231 21.5L27.9723 18.1202C27.9723 18.1202 28.9915 17.8795 26.1524 17.1419C26.0383 16.3641 26.0224 15.0229 26.8143 14.571C26.8288 14.5629 26.8395 14.5508 26.8512 14.5407C27.4977 14.3515 27.9446 14.0863 27.5934 13.729L26.9305 13.5459C27.3726 13.302 28.0366 12.6645 28.1406 11.0086C28.2124 9.86961 27.8877 9.20254 27.5118 8.80983L28.8219 8.51972C28.822 8.52018 29.8412 8.27948 27.0025 7.54191Z" fill="#DFFBF4" stroke="url(#paint0_linear_1187:8556)"/>
<path d="M13.9658 7.61656C13.9658 7.56807 14.0006 7.52657 14.0483 7.5181L16.8115 7.02763L25.4775 5.39804L27.2727 5.00488C26.8602 5.69581 26.9855 7.44665 27.0022 7.54208L25.0773 8.07923L14.0877 10.5377C14.0252 10.5516 13.9658 10.5041 13.9658 10.4401V7.61656Z" fill="#FEFEFE" stroke="url(#paint1_linear_1187:8556)"/>
<path d="M2.70703 9.81006L4.52305 10.198L12.8456 11.7636L13.5727 11.8998L15.753 12.3099L15.8606 15.3692L3.09972 12.3099C3.11602 12.2143 3.11991 10.501 2.70703 9.81006Z" fill="#FEFEFE" stroke="url(#paint2_linear_1187:8556)"/>
<path d="M3.10754 4.69004C3.27499 4.53314 3.47262 4.50049 3.60816 4.50049C3.67977 4.50049 3.73133 4.50959 3.73484 4.50959L10.387 6.49404L13.9655 7.53264V10.4371C13.9655 10.5021 13.9046 10.5498 13.8415 10.5342L4.28626 8.17624C4.28626 8.17624 3.18965 7.7878 2.91334 6.66765C2.63704 5.5475 2.9804 4.80877 3.10754 4.69004Z" fill="#FEFEFE" stroke="url(#paint3_linear_1187:8556)"/>
<path d="M12.7516 20.0409C12.7493 20.1047 12.6887 20.1501 12.6268 20.1342L2.94546 17.6505C2.92733 17.6457 2.90309 17.6425 2.88421 17.6417C2.84519 17.6393 1.92425 17.5619 1.87971 15.6885C1.86383 15.0191 1.99469 14.5361 2.25733 14.2901C2.4252 14.1332 2.88137 14.1094 2.88513 14.1094L12.8554 17.0844L12.7516 20.0409Z" fill="#FEFEFE" stroke="url(#paint4_linear_1187:8556)"/>
<path d="M26.1057 17.0302C26.1054 17.0772 26.0732 17.118 26.0275 17.1286L13.0534 20.1359C12.9893 20.1508 12.9286 20.1008 12.9309 20.035L13.0342 17.1061L16.0371 16.6137L24.6264 14.9984L26.5 14.604C26.1389 15.208 26.1078 16.6718 26.1057 17.0302Z" fill="#FEFEFE" stroke="url(#paint5_linear_1187:8556)"/>
<path d="M26.272 12.8417C26.2495 12.8421 26.227 12.8449 26.2059 12.851L25.2743 13.0896L16.4044 15.3655L16.2959 12.2849L19.206 11.4163L26.2526 9.31349C26.2535 9.3131 26.6233 9.23794 26.8947 9.4905C27.1574 9.73625 27.2877 10.2197 27.2724 10.8883C27.2264 12.7615 26.3055 12.8393 26.272 12.8417Z" fill="#FEFEFE" stroke="url(#paint6_linear_1187:8556)"/>
<defs>
<linearGradient id="paint0_linear_1187:8556" x1="29" y1="21.5" x2="29" y2="1.5" gradientUnits="userSpaceOnUse">
<stop stop-color="#2ADABF"/>
<stop offset="1" stop-color="#14B78E"/>
</linearGradient>
<linearGradient id="paint1_linear_1187:8556" x1="27.2727" y1="10.5649" x2="27.2727" y2="5.00488" gradientUnits="userSpaceOnUse">
<stop stop-color="#2ADABF"/>
<stop offset="1" stop-color="#14B78E"/>
</linearGradient>
<linearGradient id="paint2_linear_1187:8556" x1="15.8606" y1="15.3692" x2="15.8606" y2="9.81006" gradientUnits="userSpaceOnUse">
<stop stop-color="#2ADABF"/>
<stop offset="1" stop-color="#14B78E"/>
</linearGradient>
<linearGradient id="paint3_linear_1187:8556" x1="13.9655" y1="10.5447" x2="13.9655" y2="4.50049" gradientUnits="userSpaceOnUse">
<stop stop-color="#2ADABF"/>
<stop offset="1" stop-color="#14B78E"/>
</linearGradient>
<linearGradient id="paint4_linear_1187:8556" x1="12.8554" y1="20.1449" x2="12.8554" y2="14.1094" gradientUnits="userSpaceOnUse">
<stop stop-color="#2ADABF"/>
<stop offset="1" stop-color="#14B78E"/>
</linearGradient>
<linearGradient id="paint5_linear_1187:8556" x1="26.5" y1="20.1654" x2="26.5" y2="14.604" gradientUnits="userSpaceOnUse">
<stop stop-color="#2ADABF"/>
<stop offset="1" stop-color="#14B78E"/>
</linearGradient>
<linearGradient id="paint6_linear_1187:8556" x1="27.2736" y1="15.3655" x2="27.2736" y2="9.30273" gradientUnits="userSpaceOnUse">
<stop stop-color="#2ADABF"/>
<stop offset="1" stop-color="#14B78E"/>
</linearGradient>
</defs>
</svg>
