<svg width="12" height="7" viewBox="0 0 12 7" fill="none" xmlns="http://www.w3.org/2000/svg">
<path d="M11.0002 0.670187C10.8128 0.483936 10.5594 0.379395 10.2952 0.379395C10.031 0.379395 9.77756 0.483936 9.59019 0.670187L6.00019 4.21019L2.46019 0.670187C2.27283 0.483936 2.01938 0.379395 1.75519 0.379395C1.49101 0.379395 1.23756 0.483936 1.05019 0.670187C0.956464 0.76315 0.88207 0.873751 0.831301 0.99561C0.780533 1.11747 0.754395 1.24818 0.754395 1.38019C0.754395 1.5122 0.780533 1.6429 0.831301 1.76476C0.88207 1.88662 0.956464 1.99722 1.05019 2.09019L5.29019 6.33019C5.38316 6.42392 5.49376 6.49831 5.61562 6.54908C5.73747 6.59985 5.86818 6.62599 6.00019 6.62599C6.1322 6.62599 6.26291 6.59985 6.38477 6.54908C6.50663 6.49831 6.61723 6.42392 6.71019 6.33019L11.0002 2.09019C11.0939 1.99722 11.1683 1.88662 11.2191 1.76476C11.2699 1.6429 11.296 1.5122 11.296 1.38019C11.296 1.24818 11.2699 1.11747 11.2191 0.99561C11.1683 0.873751 11.0939 0.76315 11.0002 0.670187Z" fill="#15B790"/>
</svg>
